<mxfile host="app.diagrams.net" agent="Mozilla/5.0 (Windows NT 10.0; Win64; x64) AppleWebKit/537.36 (KHTML, like Gecko) Chrome/133.0.0.0 Safari/537.36" version="26.0.16">
  <diagram name="Page-1" id="CE2Moebcv8FjHW7GwLgG">
    <mxGraphModel dx="1900" dy="557" grid="1" gridSize="10" guides="1" tooltips="1" connect="1" arrows="1" fold="1" page="1" pageScale="1" pageWidth="850" pageHeight="1100" math="0" shadow="0">
      <root>
        <mxCell id="0" />
        <mxCell id="1" parent="0" />
        <mxCell id="njegtHc7196EmQRPdtl_-16" value="AWS Cloud" style="points=[[0,0],[0.25,0],[0.5,0],[0.75,0],[1,0],[1,0.25],[1,0.5],[1,0.75],[1,1],[0.75,1],[0.5,1],[0.25,1],[0,1],[0,0.75],[0,0.5],[0,0.25]];outlineConnect=0;gradientColor=none;html=1;whiteSpace=wrap;fontSize=12;fontStyle=0;container=1;pointerEvents=0;collapsible=0;recursiveResize=0;shape=mxgraph.aws4.group;grIcon=mxgraph.aws4.group_aws_cloud_alt;strokeColor=#232F3E;fillColor=none;verticalAlign=top;align=left;spacingLeft=30;fontColor=#232F3E;dashed=0;" parent="1" vertex="1">
          <mxGeometry x="750" y="190" width="130" height="150" as="geometry" />
        </mxCell>
        <mxCell id="njegtHc7196EmQRPdtl_-32" value="" style="sketch=0;outlineConnect=0;fontColor=#232F3E;gradientColor=none;fillColor=#7AA116;strokeColor=none;dashed=0;verticalLabelPosition=bottom;verticalAlign=top;align=center;html=1;fontSize=12;fontStyle=0;aspect=fixed;pointerEvents=1;shape=mxgraph.aws4.bucket;" parent="njegtHc7196EmQRPdtl_-16" vertex="1">
          <mxGeometry x="35" y="30" width="75" height="78" as="geometry" />
        </mxCell>
        <mxCell id="Ja_N1QwJknuAxMGbjBVY-1" value="S3 Bucket" style="text;html=1;align=center;verticalAlign=middle;resizable=0;points=[];autosize=1;strokeColor=none;fillColor=none;" parent="njegtHc7196EmQRPdtl_-16" vertex="1">
          <mxGeometry x="25" y="110" width="80" height="30" as="geometry" />
        </mxCell>
        <mxCell id="njegtHc7196EmQRPdtl_-30" value="" style="edgeStyle=orthogonalEdgeStyle;html=1;endArrow=open;elbow=vertical;startArrow=none;endFill=0;strokeColor=#545B64;rounded=0;" parent="1" edge="1">
          <mxGeometry width="100" relative="1" as="geometry">
            <mxPoint x="20" y="210" as="sourcePoint" />
            <mxPoint x="270" y="210" as="targetPoint" />
          </mxGeometry>
        </mxCell>
        <mxCell id="njegtHc7196EmQRPdtl_-34" value="Open Weather Map API&amp;nbsp;" style="shape=cloud;whiteSpace=wrap;html=1;" parent="1" vertex="1">
          <mxGeometry x="-150" y="140" width="180" height="120" as="geometry" />
        </mxCell>
        <mxCell id="njegtHc7196EmQRPdtl_-36" value="ETL Pipeline" style="swimlane;childLayout=stackLayout;resizeParent=1;resizeParentMax=0;startSize=20;html=1;" parent="1" vertex="1">
          <mxGeometry x="270.00000000000045" y="10" width="374.99999999999955" height="480" as="geometry" />
        </mxCell>
        <mxCell id="njegtHc7196EmQRPdtl_-37" value="Extract" style="swimlane;startSize=20;html=1;" parent="njegtHc7196EmQRPdtl_-36" vertex="1">
          <mxGeometry y="20" width="120" height="460" as="geometry" />
        </mxCell>
        <mxCell id="Ja_N1QwJknuAxMGbjBVY-5" value="JSON FILE&amp;nbsp;" style="text;html=1;align=center;verticalAlign=middle;resizable=0;points=[];autosize=1;strokeColor=none;fillColor=none;" parent="njegtHc7196EmQRPdtl_-37" vertex="1">
          <mxGeometry x="24.999999999999545" y="248" width="90" height="30" as="geometry" />
        </mxCell>
        <mxCell id="Ja_N1QwJknuAxMGbjBVY-3" value="" style="sketch=0;outlineConnect=0;fontColor=#232F3E;gradientColor=none;fillColor=#232F3D;strokeColor=none;dashed=0;verticalLabelPosition=bottom;verticalAlign=top;align=center;html=1;fontSize=12;fontStyle=0;aspect=fixed;pointerEvents=1;shape=mxgraph.aws4.json_script;" parent="njegtHc7196EmQRPdtl_-37" vertex="1">
          <mxGeometry x="41.499999999999545" y="156" width="57" height="78" as="geometry" />
        </mxCell>
        <mxCell id="njegtHc7196EmQRPdtl_-38" value="Transform" style="swimlane;startSize=20;html=1;" parent="njegtHc7196EmQRPdtl_-36" vertex="1">
          <mxGeometry x="120" y="20" width="129.99999999999955" height="460" as="geometry" />
        </mxCell>
        <mxCell id="Ja_N1QwJknuAxMGbjBVY-4" value="Transform JSON&lt;div&gt;INTO CSV FILE&lt;/div&gt;" style="text;html=1;align=center;verticalAlign=middle;resizable=0;points=[];autosize=1;strokeColor=none;fillColor=none;fontSize=14;" parent="njegtHc7196EmQRPdtl_-38" vertex="1">
          <mxGeometry x="-4.547473508864641e-13" y="170" width="130" height="50" as="geometry" />
        </mxCell>
        <mxCell id="njegtHc7196EmQRPdtl_-39" value="Load" style="swimlane;startSize=20;html=1;" parent="njegtHc7196EmQRPdtl_-36" vertex="1">
          <mxGeometry x="249.99999999999955" y="20" width="125" height="460" as="geometry" />
        </mxCell>
        <mxCell id="Ja_N1QwJknuAxMGbjBVY-7" value="&lt;font&gt;&amp;nbsp;Boto3&lt;/font&gt;&lt;div&gt;to Load Data&amp;nbsp;&lt;/div&gt;" style="text;html=1;align=center;verticalAlign=middle;resizable=0;points=[];autosize=1;strokeColor=none;fillColor=none;fontSize=17;" parent="njegtHc7196EmQRPdtl_-39" vertex="1">
          <mxGeometry x="-5" y="160" width="130" height="50" as="geometry" />
        </mxCell>
        <mxCell id="Ja_N1QwJknuAxMGbjBVY-13" value="" style="edgeStyle=orthogonalEdgeStyle;html=1;endArrow=block;elbow=vertical;startArrow=none;endFill=1;strokeColor=#545B64;rounded=0;" parent="1" edge="1">
          <mxGeometry width="100" relative="1" as="geometry">
            <mxPoint x="650" y="270" as="sourcePoint" />
            <mxPoint x="750" y="270" as="targetPoint" />
            <Array as="points">
              <mxPoint x="650" y="270" />
              <mxPoint x="650" y="270" />
            </Array>
          </mxGeometry>
        </mxCell>
        <mxCell id="Ja_N1QwJknuAxMGbjBVY-14" value="Data Destination&amp;nbsp;" style="whiteSpace=wrap;html=1;" parent="1" vertex="1">
          <mxGeometry x="750" y="30" width="120" height="60" as="geometry" />
        </mxCell>
        <mxCell id="Ja_N1QwJknuAxMGbjBVY-17" value="Data Source" style="whiteSpace=wrap;html=1;" parent="1" vertex="1">
          <mxGeometry x="-100" y="30" width="120" height="60" as="geometry" />
        </mxCell>
      </root>
    </mxGraphModel>
  </diagram>
</mxfile>
